<mxfile host="drawio-plugin" modified="2024-01-03T07:24:07.134Z" agent="5.0 (Windows NT 10.0; Win64; x64) AppleWebKit/537.36 (KHTML, like Gecko) Chrome/111.0.0.0 Safari/537.36" etag="R0GgbVHOQIOJ_TGcDFBe" version="20.5.3" type="embed" pages="3"><diagram id="EKcr0HdU757LEizDHPSV" name="subscription flow"><mxGraphModel dx="1127" dy="750" grid="1" gridSize="10" guides="1" tooltips="1" connect="1" arrows="1" fold="1" page="1" pageScale="1" pageWidth="850" pageHeight="1100" math="0" shadow="0"><root><mxCell id="0"/><mxCell id="1" parent="0"/><mxCell id="2" value="服务器" style="swimlane;whiteSpace=wrap;html=1;" parent="1" vertex="1"><mxGeometry x="130" y="260" width="580" height="380" as="geometry"><mxRectangle x="130" y="230" width="80" height="30" as="alternateBounds"/></mxGeometry></mxCell><mxCell id="6" value="web server" style="rounded=0;whiteSpace=wrap;html=1;" parent="2" vertex="1"><mxGeometry x="215" y="80" width="150" height="60" as="geometry"/></mxCell><mxCell id="7" value="Python Mysql 代理程序" style="rounded=0;whiteSpace=wrap;html=1;" parent="2" vertex="1"><mxGeometry x="400" y="240" width="150" height="60" as="geometry"/></mxCell><mxCell id="15" value="" style="endArrow=classic;startArrow=classic;html=1;rounded=0;exitX=0.5;exitY=1;exitDx=0;exitDy=0;entryX=0.5;entryY=1;entryDx=0;entryDy=0;" parent="2" source="6" target="2" edge="1"><mxGeometry width="50" height="50" relative="1" as="geometry"><mxPoint x="270" y="250" as="sourcePoint"/><mxPoint x="320" y="200" as="targetPoint"/></mxGeometry></mxCell><mxCell id="16" value="" style="endArrow=classic;startArrow=classic;html=1;rounded=0;exitX=1;exitY=0.5;exitDx=0;exitDy=0;entryX=0.5;entryY=0;entryDx=0;entryDy=0;" parent="2" source="6" target="7" edge="1"><mxGeometry width="50" height="50" relative="1" as="geometry"><mxPoint x="270" y="250" as="sourcePoint"/><mxPoint x="320" y="200" as="targetPoint"/></mxGeometry></mxCell><mxCell id="17" value="询问确定" style="text;html=1;strokeColor=none;fillColor=none;align=center;verticalAlign=middle;whiteSpace=wrap;rounded=0;" parent="2" vertex="1"><mxGeometry x="420" y="150" width="60" height="30" as="geometry"/></mxCell><mxCell id="23" value="web钩子， output report" style="text;html=1;strokeColor=none;fillColor=none;align=center;verticalAlign=middle;whiteSpace=wrap;rounded=0;" parent="2" vertex="1"><mxGeometry x="400" y="320" width="150" height="30" as="geometry"/></mxCell><mxCell id="3" value="用户请求" style="ellipse;whiteSpace=wrap;html=1;" parent="1" vertex="1"><mxGeometry x="360" y="60" width="120" height="80" as="geometry"/></mxCell><mxCell id="8" value="第三方AI 平台" style="rounded=1;whiteSpace=wrap;html=1;" parent="1" vertex="1"><mxGeometry x="295" y="800" width="250" height="60" as="geometry"/></mxCell><mxCell id="12" value="" style="endArrow=classic;startArrow=classic;html=1;rounded=0;exitX=0.5;exitY=1;exitDx=0;exitDy=0;" parent="1" source="3" target="2" edge="1"><mxGeometry width="50" height="50" relative="1" as="geometry"><mxPoint x="400" y="430" as="sourcePoint"/><mxPoint x="450" y="380" as="targetPoint"/></mxGeometry></mxCell><mxCell id="14" value="" style="endArrow=classic;startArrow=classic;html=1;rounded=0;exitX=0.5;exitY=1;exitDx=0;exitDy=0;" parent="1" source="2" target="8" edge="1"><mxGeometry width="50" height="50" relative="1" as="geometry"><mxPoint x="400" y="610" as="sourcePoint"/><mxPoint x="450" y="560" as="targetPoint"/></mxGeometry></mxCell><mxCell id="24" value="用户交流" style="text;html=1;strokeColor=none;fillColor=none;align=center;verticalAlign=middle;whiteSpace=wrap;rounded=0;" vertex="1" parent="1"><mxGeometry x="300" y="880" width="60" height="30" as="geometry"/></mxCell><mxCell id="25" value="标准判断" style="text;html=1;strokeColor=none;fillColor=none;align=center;verticalAlign=middle;whiteSpace=wrap;rounded=0;" vertex="1" parent="1"><mxGeometry x="450" y="880" width="60" height="30" as="geometry"/></mxCell></root></mxGraphModel></diagram><diagram id="YXcxMA2WIJ0A6YH6q6xw" name="usage flow">&#xa;        <mxGraphModel dx="1413" dy="806" grid="1" gridSize="10" guides="1" tooltips="1" connect="1" arrows="1" fold="1" page="1" pageScale="1" pageWidth="850" pageHeight="1100" math="0" shadow="0">&#xa;            <root>&#xa;                <mxCell id="0"/>&#xa;                <mxCell id="1" parent="0"/>&#xa;            </root>&#xa;        </mxGraphModel>&#xa;    </diagram><diagram id="sXDJLPaH5kadsJmUEnDq" name="data structure">&#xa;        <mxGraphModel dx="1413" dy="806" grid="1" gridSize="10" guides="1" tooltips="1" connect="1" arrows="1" fold="1" page="1" pageScale="1" pageWidth="850" pageHeight="1100" math="0" shadow="0">&#xa;            <root>&#xa;                <mxCell id="0"/>&#xa;                <mxCell id="1" parent="0"/>&#xa;            </root>&#xa;        </mxGraphModel>&#xa;    </diagram></mxfile>